<svg width="152" height="26" viewBox="0 0 152 26" fill="none" xmlns="http://www.w3.org/2000/svg">
<g clip-path="url(#clip0_3212_34302)">
<path d="M75.1132 24.9853C74.4814 25.0218 73.9503 25.0705 73.4159 25.0766C72.6804 25.0858 71.9418 25.0583 71.1592 25.0462C70.9517 24.4158 70.7757 23.8767 70.5494 23.1915C70.0779 23.5204 69.7039 23.7549 69.355 24.0229C65.7687 26.7942 60.3657 25.4116 58.4578 21.6018C56.7982 18.2883 56.7542 14.8866 58.3006 11.5396C60.3908 7.02326 66.2653 6.15227 69.5562 8.9358C69.8013 9.14289 70.0748 9.31952 70.4897 9.62407C70.6311 9.12157 70.804 8.78048 70.8134 8.43635C70.848 6.8649 70.8291 5.29345 70.8448 3.72201C70.8511 3.00937 70.8983 2.2937 70.9297 1.54756C72.3818 0.971976 73.7365 1.10293 75.2138 1.40747C75.2547 1.91911 75.3144 2.3607 75.3238 2.80533C75.5061 12.3771 75.4181 22.9905 75.1132 24.9853ZM70.826 16.4824C70.8228 16.4824 70.8166 16.4824 70.8134 16.4824C70.8134 15.6327 70.87 14.7769 70.7914 13.9364C70.7506 13.5131 70.5682 13.0197 70.2759 12.7152C68.2801 10.6352 63.776 10.4067 62.283 14.1374C61.8775 15.1485 61.8461 16.1839 61.9467 17.2255C62.1227 19.0467 62.9807 20.475 64.744 21.2455C66.5136 22.016 68.17 21.6018 69.7196 20.6059C70.4425 20.143 70.8637 19.5217 70.8323 18.6447C70.804 17.9229 70.826 17.2011 70.826 16.4824Z" fill="#6A2381"/>
<path d="M91.5335 9.77376C91.9453 6.82882 91.5115 4.15797 91.8259 1.55717C93.2748 1.0699 93.9255 1.04554 95.9276 1.41708C95.9905 1.81603 96.1131 2.25153 96.1162 2.68703C96.1288 9.62758 96.1288 16.5651 96.1194 23.5056C96.1194 23.9503 96.0345 24.3919 95.9779 24.9431C94.5824 25.1563 93.2654 25.141 91.8887 24.9583C91.7756 24.404 91.6718 23.9015 91.5398 23.265C91.1972 23.4204 90.8766 23.4965 90.644 23.6792C89.8551 24.3096 89.0159 24.8274 88.0352 25.1471C85.0084 26.1369 81.2461 24.8243 79.5739 22.0804C78.3953 20.1526 78.0118 18.0421 78.0872 15.8585C78.1313 14.5551 78.389 13.2608 78.8982 12.0304C81.0638 6.81664 87.4443 6.11619 90.5843 9.09463C90.7729 9.27735 91.0086 9.40526 91.5335 9.77376ZM91.7127 16.4768C91.7096 15.691 91.7599 14.9023 91.6907 14.1196C91.653 13.6871 91.5398 13.1725 91.2632 12.8588C89.4214 10.7666 85.2096 10.392 83.4777 13.4313C82.6574 14.8688 82.5159 16.3884 82.9057 17.9934C83.7166 21.3312 87.4978 22.8356 90.7415 20.4693C91.3701 20.0125 91.7504 19.4369 91.7158 18.6329C91.6876 17.9203 91.7127 17.1985 91.7127 16.4768Z" fill="#6A2381"/>
<path d="M19.8952 18.9744C19.1157 19.0688 18.6568 19.1541 18.1948 19.1754C13.7819 19.4008 9.96296 21.0301 6.60924 23.7618C6.3515 23.972 6.10634 24.1973 5.85175 24.4105C5.3237 24.8551 4.72336 25.117 4.01302 25.111C3.33724 25.1049 2.65518 25.1627 1.98884 25.0805C0.184686 24.8643 -0.582237 23.1406 0.492712 21.7397C0.813311 21.3224 1.2062 20.9539 1.58966 20.5854C3.86529 18.4019 6.48666 16.6995 9.42862 15.463C9.86238 15.2803 10.3087 15.125 10.7236 14.9087C11.4182 14.5463 11.8394 13.9738 11.9431 13.2033C12.0846 12.1465 11.3302 10.7334 10.3558 10.2249C9.28718 9.67058 8.08022 9.95381 7.33216 10.9923C6.98641 11.4735 6.75697 12.0278 6.43637 12.5272C5.89575 13.3677 5.08482 13.5657 4.18274 13.1119C3.12665 12.582 2.68347 11.5496 3.06065 10.4776C3.14866 10.2309 3.26809 9.9934 3.39068 9.76195C4.65736 7.38041 5.92718 5.00193 7.197 2.62039C7.2913 2.4468 7.37302 2.26408 7.48617 2.10267C8.46368 0.707859 10.1735 0.744404 11.1291 2.1849C11.3114 2.45899 11.4528 2.75744 11.61 3.04676C14.1433 7.81591 16.6798 12.5759 19.2037 17.3451C19.4426 17.7928 19.6029 18.277 19.8952 18.9744Z" fill="#6A2381"/>
<path d="M54.2284 24.982C52.8329 25.1312 51.5756 25.1008 50.1895 25.0155C50.0543 24.4308 49.9286 23.8917 49.7652 23.1913C49.2748 23.511 48.8819 23.7303 48.5331 24.0014C44.9782 26.7697 39.6317 25.451 37.6327 21.6503C37.3278 21.0716 37.0669 20.4595 36.8941 19.8352C36.212 17.3806 36.1868 14.9046 37.0418 12.5018C38.0696 9.61167 40.122 7.80572 43.3532 7.41895C45.1793 7.20272 46.8295 7.6169 48.3162 8.65235C48.7436 8.95081 49.1554 9.26753 49.7369 9.69694C49.894 9.0574 50.0072 8.58231 50.1392 8.04631C51.431 7.64431 52.7449 7.75699 54.1561 8.00063C54.2598 8.38435 54.4453 8.74676 54.4453 9.11221C54.461 14.0793 54.4547 19.0464 54.4453 24.0105C54.4421 24.2633 54.3353 24.516 54.2284 24.982ZM49.9632 16.3329C49.9632 15.5472 49.96 14.7645 49.9632 13.9788C49.9663 13.4976 49.8123 13.0774 49.454 12.7424C48.0302 11.4146 46.336 10.9212 44.4281 11.4054C42.7088 11.8409 41.7219 13.0439 41.2599 14.6671C40.9487 15.7574 40.911 16.8476 41.2096 17.9592C41.6685 19.6616 42.6208 20.8889 44.425 21.4158C46.2951 21.9609 47.8699 21.3945 49.2968 20.2494C49.7306 19.9022 49.9726 19.4484 49.9663 18.882C49.9569 18.0323 49.9663 17.1826 49.9632 16.3329Z" fill="#6A2381"/>
<path d="M106.495 8.03723C107.922 7.67483 109.186 7.81187 110.525 7.90628C110.673 8.46664 110.798 8.95391 110.93 9.45641C111.141 9.45641 111.396 9.53559 111.509 9.44423C112.961 8.30219 114.592 7.61392 116.459 7.38855C117.638 7.24542 118.766 7.41596 119.847 7.76923C121.516 8.31437 122.5 9.52341 122.837 11.1862C122.953 11.7588 122.984 12.3557 122.987 12.9434C123 16.4091 123.003 19.8749 122.987 23.3406C122.984 23.8461 122.877 24.3516 122.824 24.8176C121.139 25.1648 120.404 25.1678 118.637 24.8206C118.606 24.2237 118.546 23.5842 118.543 22.9477C118.53 20.3317 118.552 17.7156 118.527 15.1026C118.521 14.457 118.468 13.7901 118.288 13.1718C117.993 12.1455 117.248 11.5334 116.142 11.3324C114.674 11.0644 113.332 11.3233 112.096 12.1364C111.194 12.7272 110.723 13.4764 110.748 14.591C110.805 17.271 110.77 19.951 110.761 22.634C110.757 23.3467 110.726 24.0593 110.704 24.8115C109.299 25.2775 107.982 25.0582 106.558 24.9881C106.483 24.6379 106.363 24.3364 106.363 24.0319C106.354 18.9978 106.357 13.9637 106.363 8.9265C106.363 8.67677 106.436 8.424 106.495 8.03723Z" fill="#6A2381"/>
<path d="M25.0885 1.39823C26.6161 1.08455 27.8671 1.08455 29.0992 1.33428C29.6146 1.94032 29.4355 2.61945 29.4386 3.2529C29.4543 8.21392 29.4449 13.1749 29.448 18.136C29.448 18.6567 29.426 19.1836 29.4732 19.7013C29.6115 21.154 30.3627 21.693 31.9374 21.5164C32.1354 21.4951 32.3334 21.4585 32.588 21.4189C33.2795 22.2686 33.399 23.2919 33.5844 24.3639C32.3523 25.4085 30.897 25.5912 29.4166 25.4633C26.6224 25.2227 25.1922 23.968 25.0162 21.2941C24.9848 20.8373 24.9817 20.3804 24.9817 19.9236C24.9785 14.5058 24.9754 9.08796 24.9848 3.66708C24.9879 2.96054 25.0477 2.254 25.0885 1.39823Z" fill="#6A2381"/>
<path d="M103.295 24.9921C101.868 24.9921 100.611 24.9921 99.2469 24.9921C99.1714 24.6357 99.0551 24.3312 99.052 24.0297C99.0426 19.0017 99.0426 13.9706 99.052 8.9426C99.052 8.68983 99.1211 8.44011 99.1557 8.21779C100.57 7.70311 101.202 7.67875 103.213 8.05638C103.286 8.38833 103.433 8.75683 103.433 9.12533C103.449 14.0224 103.446 18.9225 103.44 23.8196C103.443 24.1393 103.364 24.4591 103.295 24.9921Z" fill="#6A2381"/>
<path d="M22.0353 23.0663C22.2899 23.5475 22.2396 24.0043 21.9001 24.3606C21.6361 24.6378 21.2904 24.8753 20.9321 25.0184C20.6366 25.1372 20.272 25.1128 19.9357 25.1128C17.2389 25.1159 14.5421 25.1128 11.8453 25.1007C11.7353 25.1007 11.6284 25.0093 11.377 24.8936C11.6158 24.7108 11.7824 24.5403 11.9836 24.4368C14.4698 23.1424 17.132 22.5516 19.9451 22.579C20.6837 22.5851 21.435 22.5821 22.0353 23.0663Z" fill="#6A2381"/>
<path d="M103.861 3.06733C103.839 4.59309 102.758 5.592 101.164 5.5585C99.6241 5.525 98.5775 4.42864 98.6372 2.89983C98.6906 1.50502 99.7719 0.503071 101.237 0.500026C102.789 0.493935 103.88 1.56288 103.861 3.06733Z" fill="#6A2381"/>
</g>
<defs>
<clipPath id="clip0_3212_34302">
<rect width="152" height="25" fill="white" transform="translate(0 0.5)"/>
</clipPath>
</defs>
</svg>
